<?xml version="1.0" encoding="utf-8" ?>
<svg baseProfile="tiny" height="600" preserveAspectRatio="xMidYMid meet" version="1.2" viewBox="0 0 400 600" width="400" xmlns="http://www.w3.org/2000/svg" xmlns:ev="http://www.w3.org/2001/xml-events" xmlns:xlink="http://www.w3.org/1999/xlink"><defs /><rect fill="lightgray" height="600.0" stroke="red" stroke-width="10" width="400.0" x="0.0" y="0.0" /><rect fill="lightgray" height="600.0" stroke="blue" stroke-width="8" width="200.0" x="0.0" y="0.0" /><rect fill="lightgray" height="600.0" stroke="magenta" stroke-width="6" width="100.0" x="0.0" y="0.0" /><rect fill="lightgray" height="300.0" stroke="green" stroke-width="4" width="100.0" x="0.0" y="0.0" /><rect fill="lightgray" height="300.0" stroke="green" stroke-width="4" width="100.0" x="0.0" y="300.0" /><rect fill="lightgray" height="600.0" stroke="magenta" stroke-width="6" width="100.0" x="100.0" y="0.0" /><rect fill="lightgray" height="300.0" stroke="green" stroke-width="4" width="100.0" x="100.0" y="0.0" /><rect fill="lightgray" height="300.0" stroke="green" stroke-width="4" width="100.0" x="100.0" y="300.0" /><rect fill="lightgray" height="600.0" stroke="blue" stroke-width="8" width="200.0" x="200.0" y="0.0" /><rect fill="lightgray" height="600.0" stroke="magenta" stroke-width="6" width="100.0" x="200.0" y="0.0" /><rect fill="lightgray" height="300.0" stroke="green" stroke-width="4" width="100.0" x="200.0" y="0.0" /><rect fill="lightgray" height="300.0" stroke="green" stroke-width="4" width="100.0" x="200.0" y="300.0" /><rect fill="lightgray" height="600.0" stroke="magenta" stroke-width="6" width="100.0" x="300.0" y="0.0" /><rect fill="lightgray" height="300.0" stroke="green" stroke-width="4" width="100.0" x="300.0" y="0.0" /><rect fill="lightgray" height="300.0" stroke="green" stroke-width="4" width="100.0" x="300.0" y="300.0" /></svg>