<?xml version="1.0" encoding="utf-8" ?>
<svg baseProfile="tiny" height="400" version="1.2" width="600" xmlns="http://www.w3.org/2000/svg" xmlns:ev="http://www.w3.org/2001/xml-events" xmlns:xlink="http://www.w3.org/1999/xlink"><defs /><rect height="400.0" stroke="red" stroke-width="10" width="600.0" x="0.0" y="0.0" /><rect height="400.0" stroke="blue" stroke-width="8" width="300.0" x="0.0" y="0.0" /><rect height="400.0" stroke="magenta" stroke-width="6" width="150.0" x="0.0" y="0.0" /><rect height="200.0" stroke="green" stroke-width="4" width="150.0" x="0.0" y="0.0" /><rect height="200.0" stroke="green" stroke-width="4" width="150.0" x="0.0" y="200.0" /><rect height="400.0" stroke="magenta" stroke-width="6" width="150.0" x="150.0" y="0.0" /><rect height="200.0" stroke="green" stroke-width="4" width="150.0" x="150.0" y="0.0" /><rect height="200.0" stroke="green" stroke-width="4" width="150.0" x="150.0" y="200.0" /><rect height="400.0" stroke="blue" stroke-width="8" width="300.0" x="300.0" y="0.0" /><rect height="400.0" stroke="magenta" stroke-width="6" width="150.0" x="300.0" y="0.0" /><rect height="200.0" stroke="green" stroke-width="4" width="150.0" x="300.0" y="0.0" /><rect height="200.0" stroke="green" stroke-width="4" width="150.0" x="300.0" y="200.0" /><rect height="400.0" stroke="magenta" stroke-width="6" width="150.0" x="450.0" y="0.0" /><rect height="200.0" stroke="green" stroke-width="4" width="150.0" x="450.0" y="0.0" /><rect height="200.0" stroke="green" stroke-width="4" width="150.0" x="450.0" y="200.0" /></svg>